<svg xmlns="http://www.w3.org/2000/svg" viewBox="0 0 253.98 216.82"><defs><style>.cls-1{fill:#fff;}.cls-2{fill:#312c26;}</style></defs><g id="Layer_2" data-name="Layer 2"><g id="Layer_1-2" data-name="Layer 1"><path class="cls-1" d="M241.73,70.6c-4.43-10.36-10-19.72-19-26.66-10.91-8.37-23.59-14.79-35.38-21.83-11-6.56-21-12.25-33.86-13.84a335.24,335.24,0,0,0-42.59-2.7c-23.07.14-47,4.74-65.5,19.34s-27.16,39-29.06,61.82c-2.2,26.37,17,47.83,38.65,60.32a95.28,95.28,0,0,0,15.45,7.14c2.89,1,7.51,1.34,10,2.95,2.93,1.89,2.38,8.49,2.46,11.67.61,26.51-17.22,45.63-18,47.72-.62,1.61,16.26-3.85,20.15-4.9a68.41,68.41,0,0,0,17.47-7.14c8.5-5.07,15.76-12.7,19.34-22,1.43-3.73,1-4.42,5.24-4.48,3.22-.05,6.53.42,9.75.57,6.91.32,13.83.43,20.75.18,13-.47,26.06-2.23,38.46-6.32,18.88-6.24,36.67-18.67,46.48-36.29C254,115.46,250.69,91.57,241.73,70.6Z"/><path class="cls-2" d="M66.71,204.76a11.36,11.36,0,0,1-3.23.64,47.2,47.2,0,0,1-9.45.13l-1-.09.65-.8a70,70,0,0,0,10.36-17.58,52.66,52.66,0,0,0,3.48-12.74,43.46,43.46,0,0,0-.4-14.86l.9.85A83.32,83.32,0,0,1,46.74,154a80.76,80.76,0,0,1-20.59-13.38l-2.35-2.2c-.39-.37-.8-.73-1.18-1.12L21.5,136.1l-2.25-2.39c-.73-.83-1.41-1.69-2.13-2.54-1.46-1.67-2.71-3.53-4.05-5.35-.67-.91-1.23-1.89-1.85-2.84s-1.25-1.91-1.77-2.93l-1.66-3c-.54-1-1-2.09-1.5-3.13l-.74-1.59-.64-1.63c-.41-1.09-.87-2.17-1.25-3.29a66.26,66.26,0,0,1,1.2-46.64,85.35,85.35,0,0,1,16.43-26A101.87,101.87,0,0,1,42.69,17a111.29,111.29,0,0,1,11.1-6A101.58,101.58,0,0,1,64.61,6.73,115.22,115.22,0,0,1,84,2.21,123.8,123.8,0,0,1,99,.94c4.13-.1,7.32,0,9.49.14a13.7,13.7,0,0,1,3.29.39,16.5,16.5,0,0,1-3.31.17c-2.15.05-5.34.1-9.42.37A136.6,136.6,0,0,0,84.27,3.73a119.84,119.84,0,0,0-19,4.84,102.38,102.38,0,0,0-10.55,4.34,113.56,113.56,0,0,0-10.78,6A101.61,101.61,0,0,0,23.17,36.45,83.84,83.84,0,0,0,7.36,61.73,64,64,0,0,0,6.25,106.5c.36,1.07.8,2.12,1.2,3.17l.61,1.57.71,1.52c.49,1,.92,2,1.44,3l1.59,2.92c.5,1,1.13,1.9,1.7,2.83s1.14,1.88,1.79,2.76c1.29,1.76,2.48,3.56,3.9,5.19.68.82,1.34,1.66,2,2.47l2.17,2.33,1.08,1.15c.37.38.76.73,1.13,1.09l2.28,2.15a79,79,0,0,0,19.85,13.11,81.78,81.78,0,0,0,20.62,6.38l.75.13.14.72a45,45,0,0,1,.19,15.58,53.84,53.84,0,0,1-3.85,13.11,67.34,67.34,0,0,1-11.11,17.64l-.34-.88a58.51,58.51,0,0,0,9.3.38A20.71,20.71,0,0,1,66.71,204.76Z"/><path class="cls-2" d="M66.85,205c0-.1,1.56.06,4.54.05a52.39,52.39,0,0,0,12.94-1.67,58.22,58.22,0,0,0,18.82-8.87,74.16,74.16,0,0,0,10-8.5c1.65-1.66,3.28-3.45,4.86-5.36.79-1,1.57-1.94,2.33-3,.38-.51.76-1,1.12-1.55l.54-.8.27-.4.12-.2.06-.1,0,0h0c.57.38-1.26-.88,1.22,1l-1.16-1.07a2,2,0,0,1,.37-.35,2.3,2.3,0,0,1,.32-.15,2.47,2.47,0,0,1,.54-.13,4.59,4.59,0,0,1,.89-.06c.57,0,1.1,0,1.64.07,1.07.1,2.13.23,3.2.37l6.48.88c4.4.58,8.95,1.09,13.67,1.41a134.75,134.75,0,0,0,30-1.08,96.26,96.26,0,0,0,31.37-10.37,86.86,86.86,0,0,0,14.58-10,84.29,84.29,0,0,0,12.7-13.22,63.78,63.78,0,0,0,9.16-16.49,60,60,0,0,0,3.84-19l.08-2.48-.07-2.49,0-1.24-.11-1.25-.21-2.5a74.82,74.82,0,0,0-1.89-10,81.74,81.74,0,0,0-7.71-19.14A98.61,98.61,0,0,0,229.2,50a110.25,110.25,0,0,0-15.75-14.9c-1.41-1.16-2.93-2.2-4.43-3.26s-3-2.16-4.54-3.17l-4.72-2.93c-.79-.48-1.57-1-2.38-1.45l-2.45-1.34L190,20.22l-5.09-2.41-2.55-1.22-2.62-1.08-5.25-2.15c-1.94-.73-3.91-1.38-5.86-2.07l-2.93-1-3-.85c-2-.57-3.95-1.17-5.93-1.7l-6-1.38c-2-.51-4-.83-6-1.18s-4-.74-6-1c-4-.44-8-1-12-1.16a139.6,139.6,0,0,0-23.7.51l-5.79.77-1.44.2-1.43.29-2.83.58-2.84.57-1.41.29L86,6.61,80.5,8.17A100.45,100.45,0,0,0,42.34,30a85.38,85.38,0,0,0-23.2,33.82,68.79,68.79,0,0,0-3.83,19,63.86,63.86,0,0,0,1.86,18.42,69.59,69.59,0,0,0,6.45,16.41,78.57,78.57,0,0,0,9.47,13.78,85.16,85.16,0,0,0,11.32,10.9,80.5,80.5,0,0,0,36.65,16.21l.48.08.09.47a46.51,46.51,0,0,1-1,21.08,61.25,61.25,0,0,1-6.1,14.36,65.15,65.15,0,0,1-5.44,8c-.68.86-1.23,1.48-1.61,1.89s-.59.6-.61.58.14-.25.47-.7.82-1.1,1.45-2a77.83,77.83,0,0,0,5.1-8.13,63,63,0,0,0,5.71-14.28,45.93,45.93,0,0,0,.69-20.52l.57.54a79.61,79.61,0,0,1-24.94-8.11,80.91,80.91,0,0,1-12.61-8,86.94,86.94,0,0,1-11.67-11.06,79.45,79.45,0,0,1-9.81-14.06,71.68,71.68,0,0,1-6.75-16.87,66,66,0,0,1-2-19A70.58,70.58,0,0,1,16.91,63c4.58-12.92,12.88-25,23.72-34.89A102.59,102.59,0,0,1,79.71,5.64L85.35,4l1.41-.4,1.44-.3,2.9-.59,2.9-.6,1.45-.3,1.47-.2,5.92-.79A140.77,140.77,0,0,1,127,.29c4.08.13,8.13.72,12.22,1.17,2,.25,4.06.68,6.1,1s4.08.68,6.1,1.19l6.08,1.4c2,.54,4,1.15,6,1.72l3,.87,3,1c2,.7,4,1.36,6,2.1L180.81,13l2.66,1.1,2.6,1.23,5.17,2.46,5,2.73,2.49,1.36c.83.47,1.62,1,2.43,1.48l4.81,3c1.57,1,3.08,2.16,4.62,3.23s3.07,2.14,4.52,3.33a112.8,112.8,0,0,1,16.11,15.28A101.3,101.3,0,0,1,243.73,66a84.4,84.4,0,0,1,7.91,19.78,76.33,76.33,0,0,1,1.93,10.31l.21,2.6.11,1.29,0,1.3.06,2.59-.08,2.58a64.66,64.66,0,0,1-13.64,36.89,86.07,86.07,0,0,1-13.11,13.56,89,89,0,0,1-15,10.16A98.15,98.15,0,0,1,180,177.5a136.5,136.5,0,0,1-30.42.87c-4.77-.36-9.36-.92-13.77-1.55l-6.48-.94c-1-.15-2.09-.29-3.12-.39-.5-.05-1-.09-1.48-.09a6.32,6.32,0,0,0-.66,0l-.21,0h0s-.07-.09-.06-.09a.35.35,0,0,0-.2-.23l-.82-.84c2.48,1.87.63.63,1.19,1l0,0,0,.07-.07.11-.14.22-.28.42-.57.82c-.39.54-.78,1.07-1.17,1.58-.79,1-1.6,2-2.41,3-1.64,1.93-3.32,3.73-5,5.4a74.49,74.49,0,0,1-10.35,8.51,57.84,57.84,0,0,1-19.31,8.67,49.1,49.1,0,0,1-13.16,1.29c-1.5-.06-2.64-.18-3.4-.28A4.76,4.76,0,0,1,66.85,205Z"/><path class="cls-2" d="M43.16,149.33A16.62,16.62,0,0,1,42,148a50,50,0,0,0-3.61-3.61c-.82-.74-1.76-1.54-2.83-2.36-.53-.41-1.1-.82-1.71-1.22a7.37,7.37,0,0,0-1.91-1,13.3,13.3,0,0,0-2.39.13,2.29,2.29,0,0,1-1.42-.55,3.25,3.25,0,0,1-.52-.53,1.93,1.93,0,0,1-.4-.72,9.63,9.63,0,0,1-.13-2.92c0-1,.17-2,.14-2.86l.77.33a12.31,12.31,0,0,1-1.51,1.07,4,4,0,0,1-2,.6,2.3,2.3,0,0,1-1.88-1.25,6.91,6.91,0,0,1-.7-1.93,7.14,7.14,0,0,1,.25-4.18,8.52,8.52,0,0,0,.62-1.79,1.75,1.75,0,0,0-.63-1.4l-.34-.33h0s0,0,.05,0a.44.44,0,0,0,.29.09c.06,0,0,0,0,0H22l-.26,0a7.82,7.82,0,0,1-1.11.15,4,4,0,0,1-2.44-.45,2.11,2.11,0,0,1-.59-.55,2,2,0,0,1-.25-.73,6.47,6.47,0,0,1-.06-1.22,17.65,17.65,0,0,0,0-2.16,1.29,1.29,0,0,0-.2-.7s-.06-.07-.13-.12l-.19-.14a1.9,1.9,0,0,0-.4-.21,2.31,2.31,0,0,0-1.8.06,11.44,11.44,0,0,1-2.35.74,3.12,3.12,0,0,1-1.47-.19,5.84,5.84,0,0,1-.65-.35l-.54-.45L9.23,117l.35-.48A23.25,23.25,0,0,0,12,112a15.32,15.32,0,0,0,1.29-5l1.07.54a9.29,9.29,0,0,1-2.74,1.6,2.36,2.36,0,0,1-2-.17,2.43,2.43,0,0,1-.94-1.77,8.31,8.31,0,0,1,.39-3.25,13.41,13.41,0,0,1,.54-1.5,7.82,7.82,0,0,1,.79-1.45c.59-.88,1.21-1.68,1.79-2.52a11.7,11.7,0,0,0,1.42-2.52,1.31,1.31,0,0,0,.09-.49c0-.18-.08-.47-.12-.7a5.45,5.45,0,0,0-.17-.67c0-.07-.07-.21-.1-.24a.16.16,0,0,1,0-.07s0,0,0,0,.07,0,.12,0,0,0,0,0l-.07,0a.4.4,0,0,0-.12.07c-.19.11-.43.29-.7.44a2.39,2.39,0,0,1-2.1.18l-.46-.23-.3-.17a5.59,5.59,0,0,0-.63-.26c-.22-.06-.42-.11-.7-.16a3.19,3.19,0,0,1-.53-.16,1.29,1.29,0,0,1-.6-.6,2.74,2.74,0,0,1-.19-1c0-.29,0-.57,0-.83l0-.8a4.13,4.13,0,0,1,.2-.94,10.35,10.35,0,0,1,1.77-2.82,23.22,23.22,0,0,0,1.8-2.37,9.89,9.89,0,0,0,.59-1.3c.19-.46.36-.93.49-1.36a2.58,2.58,0,0,0,.11-.56s0-.06.05.07.1.1.16.11.05,0,0,0a2,2,0,0,0-.53.12l-.68.24a13.3,13.3,0,0,1-3,.83A6.52,6.52,0,0,1,4.9,82l-.71-.28L4.57,81A32.58,32.58,0,0,1,9.91,74.8a19.29,19.29,0,0,0,4.45-5.94l.66.85c-2.87.4-5.38,2.34-8.37,3.05l-1.35.32L6,71.9a42,42,0,0,1,5.29-6.6,26.2,26.2,0,0,0,4.41-6.07l.38.7a7.86,7.86,0,0,1-1.17-.36,3.64,3.64,0,0,0-.95-.21l-.58,0,.13-.56a8.45,8.45,0,0,1,1.82-3.43,29.45,29.45,0,0,1,2.47-2.51,13.79,13.79,0,0,0,3.72-4.68l.31.48a7.75,7.75,0,0,1-2-.65,6,6,0,0,0-1.65-.52l-.58-.05L18,47c2-2.44,3.67-4.17,4.8-5.37a15.58,15.58,0,0,1,1.79-1.78,14.43,14.43,0,0,1-1.55,2c-1.06,1.27-2.69,3.07-4.56,5.53l-.22-.49a6.18,6.18,0,0,1,1.87.52,7.56,7.56,0,0,0,1.78.55l.47,0-.16.44a14.18,14.18,0,0,1-3.8,5C16.82,55,15,56.65,14.44,59L14,58.4a11.7,11.7,0,0,1,2.23.55l.65.11-.27.59A26.93,26.93,0,0,1,12.11,66,41.52,41.52,0,0,0,7,72.48l-.65-.86a22.7,22.7,0,0,0,4-1.6,16.07,16.07,0,0,1,4.49-1.54l1.07-.15-.41,1c-2.08,5-7.16,7.83-9.79,12.35l-.34-1c1.62.66,3.47.24,5.29-.48l.73-.26a3.4,3.4,0,0,1,.95-.2,1.48,1.48,0,0,1,.39.06,1,1,0,0,1,.47.32,1.17,1.17,0,0,1,.25.78,3.93,3.93,0,0,1-.15.93,15.53,15.53,0,0,1-.54,1.5,10.51,10.51,0,0,1-.67,1.48A22.74,22.74,0,0,1,10.2,87.4a9.09,9.09,0,0,0-1.54,2.42,2.42,2.42,0,0,0-.13.58l0,.77c0,.25,0,.5,0,.74a2.17,2.17,0,0,0,.06.49c-.09.06-.11,0-.16.1s.07-.12.1-.16a1.09,1.09,0,0,0,.23.06,6.7,6.7,0,0,1,.84.2,7.64,7.64,0,0,1,.83.35l.39.21c.13.08.17.08.26.13a1,1,0,0,0,.93-.11c.19-.11.37-.24.63-.4l.22-.13a1.7,1.7,0,0,1,.29-.12,1,1,0,0,1,.42-.06,1.08,1.08,0,0,1,.49.13,2.14,2.14,0,0,1,.35.28l.17.27a2.64,2.64,0,0,1,.21.47,8.39,8.39,0,0,1,.23.85c0,.29.1.51.14.84a2.77,2.77,0,0,1-.15,1,12.39,12.39,0,0,1-1.61,2.88c-.6.86-1.23,1.68-1.77,2.5a6.11,6.11,0,0,0-.68,1.22,11.65,11.65,0,0,0-.49,1.36,6.94,6.94,0,0,0-.35,2.69c.15.88.37,1,1.21.83a8,8,0,0,0,2.31-1.37l1.14-.87L14.65,107a16.75,16.75,0,0,1-1.41,5.5,24.93,24.93,0,0,1-2.63,4.78l-.07-.83a1.88,1.88,0,0,0,1.62.64,10.5,10.5,0,0,0,2.09-.66,5.26,5.26,0,0,1,1.3-.28,3.39,3.39,0,0,1,1.38.26,3.13,3.13,0,0,1,.6.34l.27.2a1.08,1.08,0,0,1,.29.26,2.48,2.48,0,0,1,.49,1.41,21.34,21.34,0,0,1,0,2.3,5.21,5.21,0,0,0,0,1,1.22,1.22,0,0,0,.09.3.79.79,0,0,0,.22.18,3,3,0,0,0,1.73.3,8.67,8.67,0,0,0,1-.13l.26,0,.16,0h.14a.71.71,0,0,1,.35.1l.07,0h0l.41.41a4.12,4.12,0,0,1,.69,1,3.11,3.11,0,0,1,.21.63,2.5,2.5,0,0,1,0,.67,9.23,9.23,0,0,1-.7,2,6,6,0,0,0-.26,3.56c.24,1.18.73,2.41,1.6,2.42A5.6,5.6,0,0,0,27.37,132l.75-.58v.92c0,1.1-.13,2-.19,3a9.34,9.34,0,0,0,0,2.61,2.1,2.1,0,0,0,.63.87,1.45,1.45,0,0,0,.94.38,11.35,11.35,0,0,1,2.51-.06,4.28,4.28,0,0,1,1.16.52,11.51,11.51,0,0,1,1,.62c.62.43,1.19.86,1.72,1.29,1.07.86,2,1.71,2.79,2.49a37,37,0,0,1,3.47,3.81A6.73,6.73,0,0,1,43.16,149.33Z"/><path class="cls-2" d="M78.25,160.5c.09,0,.1,1,.43,2.67.16.85.4,1.89.72,3.11a42.21,42.21,0,0,1,.95,4.21l.13.81-.76-.35c-2.06-1-4.19-2.5-6.82-3l.65-.58a9,9,0,0,0,2,4.7,20.19,20.19,0,0,1,3.24,5.28l.29.85H78.2a7.26,7.26,0,0,1-4-1.61c-1.1-.76-2.2-1.44-3.24-1.17l.52-.71a19.17,19.17,0,0,0,1.84,6c.81,1.73,1.73,3.39,2.66,5l.79,1.37-1.52-.36A15.3,15.3,0,0,1,71.52,185,6.81,6.81,0,0,0,68.23,184l.63-.77c.53,2.89,2.29,5.46,2.6,8.48l.16,1.65-1.17-1.18a3,3,0,0,0-1.46-.9c-.55-.12-1.31-.15-2-.35l.69-.51c0,1.22.16,2.56.14,3.79a7.5,7.5,0,0,1,0,.94,1.85,1.85,0,0,1-.39,1.11,2.32,2.32,0,0,1-.91.54,1.78,1.78,0,0,1-1,0A7.45,7.45,0,0,1,64,196a.76.76,0,0,0-.19-.07h0s-.08,0-.12.06a6.11,6.11,0,0,1-.67.35c-.2.1-.53.19-.6.23s-.14.19-.22.36L61.67,198a6.35,6.35,0,0,0-.62,1.86c-.12.57-.22,1.07-.34,1.47-.23.8-.5,1.17-.54,1.14s.11-.42.22-1.21c.07-.4.11-.89.19-1.48a6.33,6.33,0,0,1,.52-2l.46-1.13a1.45,1.45,0,0,1,.48-.7c.32-.16.44-.18.65-.29a5.57,5.57,0,0,0,.57-.33,1.66,1.66,0,0,1,.2-.12.76.76,0,0,1,.35-.07,1.25,1.25,0,0,1,.52.12,9.1,9.1,0,0,0,1.34.63,1,1,0,0,0,.56,0,1.05,1.05,0,0,0,.26-.13.53.53,0,0,0,.12-.1l.07,0,0,0h0l.11.11a.57.57,0,0,0-.11-.11h0s0,0,0,0a1,1,0,0,0,0-.13,3.33,3.33,0,0,0,0-.37,7.75,7.75,0,0,0,0-.84c0-1.19-.19-2.38-.24-3.83l0-.71.71.2c.58.16,1.17.16,1.94.3a4,4,0,0,1,2,1.17l-1,.47a15.21,15.21,0,0,0-1.2-3.92,23.74,23.74,0,0,1-1.51-4.43l-.15-.77h.78c3,0,5.08,2.28,7.37,2.79l-.73,1c-1-1.62-1.89-3.32-2.72-5.11a19.66,19.66,0,0,1-2-6.49l0-.57.57-.14a3.81,3.81,0,0,1,2.44.28,11.41,11.41,0,0,1,1.86,1.1,6,6,0,0,0,3.21,1.42l-.61.85a19.55,19.55,0,0,0-3-5,10,10,0,0,1-2.14-5.35l0-.7.67.13A13.84,13.84,0,0,1,77,168.4c1.13.61,2.15,1.25,3.12,1.76l-.63.45c-.18-1.55-.51-3-.75-4.18s-.44-2.31-.53-3.19A6.83,6.83,0,0,1,78.25,160.5Z"/></g></g></svg>