<svg width="17" height="10" viewBox="0 0 17 10" fill="none" xmlns="http://www.w3.org/2000/svg">
<path d="M8.49835 2.88241C8.93051 2.88241 9.35844 2.96753 9.7577 3.13291C10.157 3.29829 10.5197 3.54069 10.8253 3.84627C11.1309 4.15185 11.3733 4.51463 11.5387 4.91389C11.7041 5.31315 11.7892 5.74108 11.7892 6.17324C11.7892 6.6054 11.7041 7.03332 11.5387 7.43259C11.3733 7.83185 11.1309 8.19463 10.8253 8.50021C10.5197 8.80579 10.157 9.04819 9.7577 9.21357C9.35844 9.37895 8.93051 9.46407 8.49835 9.46407C7.62557 9.46407 6.78854 9.11736 6.17138 8.50021C5.55423 7.88306 5.20752 7.04602 5.20752 6.17324C5.20752 5.30046 5.55423 4.46342 6.17138 3.84627C6.78854 3.22912 7.62557 2.88241 8.49835 2.88241ZM8.49835 4.11631C7.95282 4.11631 7.42964 4.33303 7.04389 4.71877C6.65814 5.10452 6.44143 5.62771 6.44143 6.17324C6.44143 6.71877 6.65814 7.24196 7.04389 7.6277C7.42964 8.01345 7.95282 8.23016 8.49835 8.23016C9.04388 8.23016 9.56707 8.01345 9.95282 7.6277C10.3386 7.24196 10.5553 6.71877 10.5553 6.17324C10.5553 5.62771 10.3386 5.10452 9.95282 4.71877C9.56707 4.33303 9.04388 4.11631 8.49835 4.11631ZM8.49835 0C12.2939 0 15.5686 2.59121 16.478 6.2226C16.4998 6.30189 16.5055 6.38473 16.4947 6.46625C16.484 6.54777 16.4571 6.62632 16.4156 6.69729C16.3741 6.76826 16.3188 6.83021 16.253 6.87951C16.1872 6.92881 16.1122 6.96446 16.0324 6.98436C15.9526 7.00427 15.8697 7.00802 15.7884 6.99541C15.7072 6.9828 15.6293 6.95407 15.5593 6.91092C15.4893 6.86777 15.4286 6.81107 15.3809 6.74414C15.3331 6.67722 15.2992 6.60142 15.2811 6.5212C14.8993 5.01124 14.0246 3.67184 12.7955 2.71522C11.5664 1.75859 10.0533 1.23944 8.49581 1.24001C6.93833 1.24058 5.42556 1.76083 4.19718 2.71835C2.96879 3.67586 2.09503 5.01589 1.71433 6.52614C1.67363 6.68383 1.57222 6.81903 1.43223 6.90226C1.29223 6.98548 1.12501 7.00998 0.967032 6.9704C0.809051 6.93083 0.673127 6.83039 0.588904 6.69099C0.504681 6.5516 0.478992 6.38456 0.51744 6.2263C0.963738 4.44757 1.99141 2.86889 3.43731 1.74087C4.88322 0.612847 6.66449 0.000136212 8.49835 0Z" fill="#444444"/>
</svg>
