<svg width="17" height="7" viewBox="0 0 17 7" fill="none" xmlns="http://www.w3.org/2000/svg">
<path fill-rule="evenodd" clip-rule="evenodd" d="M0.748375 0.179954C1.05008 -0.0840377 1.50837 -0.0540265 1.7731 0.246645L1.77498 0.248747L1.78981 0.264909C1.80449 0.280714 1.82874 0.306318 1.86245 0.340334C1.92991 0.4084 2.03505 0.509922 2.17708 0.633882C2.38593 0.81615 2.67346 1.04596 3.03722 1.28896C3.06715 1.30577 3.09621 1.32488 3.12415 1.34632C3.23058 1.41568 3.34311 1.48589 3.46168 1.55616C4.19305 1.98956 5.15275 2.42454 6.33123 2.68016C6.37912 2.68521 6.42719 2.69512 6.47486 2.71019C7.09217 2.8345 7.76766 2.9091 8.5 2.9091C9.23591 2.9091 9.91442 2.83377 10.5342 2.70837C10.5654 2.69974 10.5967 2.69328 10.628 2.68892C11.8251 2.43456 12.7985 1.99455 13.5383 1.55616C14.1083 1.2184 14.5385 0.882067 14.8229 0.633882C14.965 0.509922 15.0701 0.4084 15.1375 0.340334C15.1713 0.306318 15.1955 0.280714 15.2102 0.264909L15.225 0.248747L15.2258 0.247911C15.2262 0.247485 15.2265 0.247059 15.2269 0.246634C15.4916 -0.0540272 15.9499 -0.0840346 16.2516 0.179954C16.5539 0.444449 16.5845 0.903912 16.32 1.20619L15.7727 0.727281C16.32 1.20619 16.3198 1.20645 16.3196 1.20672L16.3191 1.20731L16.3178 1.2087L16.3147 1.21226L16.3055 1.22251C16.2981 1.2307 16.2882 1.24159 16.2758 1.25499C16.2508 1.2818 16.2158 1.3187 16.1707 1.36423C16.0805 1.45525 15.9498 1.581 15.7793 1.72977C15.6657 1.82898 15.534 1.93863 15.3847 2.05517L16.3272 3.16579C16.5871 3.47204 16.5495 3.93098 16.2433 4.19088C15.937 4.45077 15.4781 4.41319 15.2182 4.10695L14.17 2.87174C13.4916 3.26306 12.6551 3.64807 11.6673 3.92893L12.0991 5.22464C12.226 5.6057 12.0201 6.01754 11.639 6.14452C11.2579 6.2715 10.8461 6.06552 10.7191 5.68446L10.2367 4.23678C9.69235 4.31764 9.11318 4.36364 8.5 4.36364C7.88211 4.36364 7.29875 4.31693 6.75073 4.23491L6.28275 5.67878C6.15891 6.06087 5.74877 6.27023 5.36668 6.14639C4.98459 6.02254 4.77523 5.6124 4.89907 5.23031L5.32187 3.92585C4.33906 3.64533 3.50633 3.26183 2.83055 2.87203L1.78163 4.10714C1.52162 4.4133 1.06266 4.45071 0.756509 4.19071C0.450356 3.9307 0.412943 3.47174 0.672946 3.16559L1.61571 2.05549C1.4662 1.93883 1.33445 1.82907 1.22067 1.72977C1.05021 1.581 0.919546 1.45525 0.829334 1.36423C0.784212 1.3187 0.749155 1.2818 0.724245 1.25499C0.711789 1.24159 0.701864 1.2307 0.694481 1.22251L0.685312 1.21226L0.682158 1.2087L0.680939 1.20731L0.680419 1.20672C0.680184 1.20645 0.679959 1.20619 1.22729 0.727281L0.679959 1.20619C0.415463 0.903912 0.446094 0.444449 0.748375 0.179954Z" fill="#444444"/>
</svg>
