<svg xmlns="http://www.w3.org/2000/svg" viewBox="0 0 265.68 201.64"><defs><style>.cls-1{fill:#21264e;}.cls-2{fill:#fafafa;}.cls-3{font-size:73.49px;fill:#2b3260;font-family:Handlee-Regular, Handlee;letter-spacing:-0.01em;}.cls-4{letter-spacing:0em;}</style></defs><g id="Layer_2" data-name="Layer 2"><g id="Layer_1-2" data-name="Layer 1"><path class="cls-1" d="M62.89,18.7,169.8,6c26.73-1.91,66.82,1.28,85.91,26.1,21,28.63,5.72,105-17.18,126-6.79,6.22-17.11,9.91-29.05,12.05-.51,10.79,1.67,24.6,14.23,31.52,0,0-41.1-1.37-56.7-28.9-17-.21-33.32-1.31-44.94-1.31-38.18,0-87.82-3.82-103.08-47.73C3.71,83.61,20.89,30.16,62.89,18.7Z"/><path class="cls-2" d="M50.89,14.7,157.8,2c26.73-1.91,66.82,1.28,85.91,26.1,21,28.63,5.72,105-17.18,126-6.79,6.22-17.11,9.91-29.05,12.05-.51,10.79,1.67,24.6,14.23,31.52,0,0-41.1-1.37-56.7-28.9-17-.21-33.32-1.31-44.94-1.31-38.18,0-87.82-3.82-103.08-47.73C-8.29,79.61,8.89,26.16,50.89,14.7Z"/><path class="cls-1" d="M50.89,16.2l13.66-1.62,31.39-3.74,34.65-4.13L154.4,3.88a148.38,148.38,0,0,1,27-.53c16.07,1,32.74,4.31,46.63,12.81,6.21,3.81,12.19,8.83,16,15.1a52.3,52.3,0,0,1,6.19,16.65c3,14.12,2.35,29.05.27,43.24-2.12,14.48-5.86,29-12,42.33a72.27,72.27,0,0,1-9.09,15.3c-4.7,5.81-10.9,9.65-17.9,12.17a88.5,88.5,0,0,1-14.42,3.72,1.52,1.52,0,0,0-1.1,1.45A45.53,45.53,0,0,0,198.36,184,28,28,0,0,0,211,198.94l.75-2.8A77.74,77.74,0,0,1,196.83,194c-10.21-2.3-20.32-6.18-28.68-12.58a47.17,47.17,0,0,1-11.61-13,2.18,2.18,0,0,0-2.27-1.17c-1.23,0-2.47,0-3.7-.06-2.43,0-4.86-.12-7.29-.19q-6.71-.22-13.43-.5c-7.41-.29-14.82-.52-22.24-.56-5.81,0-11.62-.15-17.42-.48-12-.67-24.06-2.16-35.64-5.53-11.08-3.22-21.78-8.3-30.32-16.19-9.17-8.46-14.79-19.55-18.12-31.47A88.15,88.15,0,0,1,4,75.72,83.63,83.63,0,0,1,16.64,41.86,62.76,62.76,0,0,1,42.93,19.12a58.91,58.91,0,0,1,8.36-3,1.5,1.5,0,0,0-.8-2.89C32.37,18.25,18,31.46,9.57,48.05a91.79,91.79,0,0,0-8.46,55.24,83.73,83.73,0,0,0,9.22,27.57,61.81,61.81,0,0,0,18.31,20.26c15,10.61,33.57,14.73,51.52,16.54,9.07.92,18.19,1.22,27.31,1.26,12.27.06,24.51.71,36.77,1.09,3.59.1,7.18.19,10.77.23l-1.29-.74c5.88,10.3,15.63,17.61,26.39,22.25a95.4,95.4,0,0,0,26.25,6.92c1.77.22,3.56.41,5.35.47a1.51,1.51,0,0,0,.76-2.79A25,25,0,0,1,201,182.63,44,44,0,0,1,199,166.12l-1.1,1.45c9.46-1.72,19.37-4.43,27.15-10.33A46.59,46.59,0,0,0,236.4,143.9c7.29-12.08,11.75-26,14.75-39.67,3.26-14.9,4.9-30.44,3.61-45.68a80.17,80.17,0,0,0-3.93-19.76,43.16,43.16,0,0,0-10-16.26C229.37,10.74,213.05,4.9,197.12,2.16A155.68,155.68,0,0,0,172.54,0a124.57,124.57,0,0,0-15.21.51c-6,.68-12,1.43-18,2.15l-33.58,4L71.57,10.74,51.85,13.09l-1,.11C49,13.43,49,16.43,50.89,16.2Z"/><text class="cls-3" transform="translate(22.49 106.49)">H<tspan class="cls-4" x="52.25" y="0">owdy</tspan></text></g></g></svg>